<?xml version="1.0" standalone="no"?>
<!DOCTYPE svg PUBLIC "-//W3C//DTD SVG 20010904//EN"
 "http://www.w3.org/TR/2001/REC-SVG-20010904/DTD/svg10.dtd">
<svg version="1.0" xmlns="http://www.w3.org/2000/svg"
 width="1080.000000pt" height="1080.000000pt" viewBox="0 0 1080.000000 1080.000000"
 preserveAspectRatio="xMidYMid meet">
<metadata>
Created by potrace 1.14, written by Peter Selinger 2001-2017
</metadata>
<g transform="translate(0.000000,1080.000000) scale(0.100000,-0.100000)"
fill="#000000" stroke="none">
<path d="M5065 10793 c-102 -9 -353 -33 -375 -37 -14 -2 -47 -7 -75 -11 -27
-4 -111 -18 -185 -31 -758 -138 -1486 -441 -2122 -883 -61 -43 -233 -171 -279
-208 -60 -49 -240 -202 -283 -243 -181 -165 -481 -491 -596 -645 -25 -33 -47
-62 -51 -65 -14 -13 -124 -168 -211 -300 -222 -336 -430 -747 -558 -1105 -30
-84 -35 -98 -39 -117 -1 -4 -8 -23 -16 -41 -8 -19 -34 -103 -59 -188 -58 -200
-106 -410 -151 -664 -7 -39 -42 -330 -51 -415 -10 -104 -13 -726 -3 -825 4
-49 11 -119 14 -155 16 -179 65 -475 116 -695 106 -460 315 -1002 534 -1385
21 -36 46 -81 57 -100 11 -19 47 -79 81 -132 34 -54 71 -113 82 -131 27 -44
154 -224 169 -240 6 -6 23 -28 36 -47 30 -42 27 -38 135 -170 189 -229 416
-461 630 -644 44 -38 93 -81 110 -95 16 -14 97 -76 180 -138 82 -62 155 -117
162 -123 7 -5 15 -10 19 -10 3 0 23 -13 44 -30 21 -16 40 -30 43 -30 3 0 39
-22 79 -49 258 -171 647 -365 993 -496 128 -48 368 -128 419 -140 12 -2 82
-20 156 -40 126 -33 437 -96 540 -110 25 -3 77 -10 115 -15 68 -9 100 -12 295
-29 122 -11 637 -11 760 0 159 13 224 19 250 24 14 2 50 7 80 10 118 13 328
51 505 92 181 41 498 132 537 154 10 5 22 9 28 9 6 0 93 32 193 71 273 107
680 312 892 449 13 8 45 28 71 44 26 16 92 61 147 100 54 39 109 78 120 86 29
19 244 188 282 221 290 253 467 432 690 700 624 751 1048 1726 1179 2709 35
257 41 372 41 725 0 328 -4 403 -35 661 -124 1026 -549 2002 -1223 2809 -192
230 -441 478 -657 656 -36 30 -67 56 -70 59 -13 14 -209 165 -257 197 -10 7
-59 41 -109 75 -50 35 -99 68 -110 75 -534 336 -1028 551 -1599 696 -178 46
-503 110 -620 122 -33 4 -71 8 -85 10 -14 2 -54 7 -90 10 -36 4 -85 9 -110 12
-53 6 -706 11 -765 6z"/>
</g>
</svg>
